<?xml version="1.0" encoding="utf-8"?>
<!-- Generator: Adobe Illustrator 23.1.0, SVG Export Plug-In . SVG Version: 6.00 Build 0)  -->
<svg version="1.1" id="Capa_1" xmlns="http://www.w3.org/2000/svg" xmlns:xlink="http://www.w3.org/1999/xlink" x="0px" y="0px"
	 viewBox="0 0 30 30" style="enable-background:new 0 0 30 30;" xml:space="preserve">
<style type="text/css">
	.st0{fill:#32361C;}
	.st1{opacity:1.000000e-02;fill:none;stroke:#000000;stroke-width:0.25;stroke-miterlimit:10;}
</style>
<g>
	<g>
		<path class="st0" d="M25,21.5H5c-0.3,0-0.5-0.2-0.5-0.5s0.2-0.5,0.5-0.5h20c0.3,0,0.5,0.2,0.5,0.5S25.3,21.5,25,21.5z"/>
	</g>
	<g>
		<path class="st0" d="M25,9.5H5C4.7,9.5,4.5,9.3,4.5,9S4.7,8.5,5,8.5h20c0.3,0,0.5,0.2,0.5,0.5S25.3,9.5,25,9.5z"/>
	</g>
	<g>
		<path class="st0" d="M25,15.5H5c-0.3,0-0.5-0.2-0.5-0.5s0.2-0.5,0.5-0.5h20c0.3,0,0.5,0.2,0.5,0.5S25.3,15.5,25,15.5z"/>
	</g>
</g>
<rect class="st1" width="30" height="30"/>
</svg>
