<?xml version="1.0" encoding="utf-8"?>
<!-- Generator: Adobe Illustrator 23.1.0, SVG Export Plug-In . SVG Version: 6.00 Build 0)  -->
<svg version="1.1" id="Layer_1" xmlns="http://www.w3.org/2000/svg" xmlns:xlink="http://www.w3.org/1999/xlink" x="0px" y="0px"
	 viewBox="0 0 550 500" style="enable-background:new 0 0 550 500;" xml:space="preserve">
<style type="text/css">
	.st0{fill:#C4BDA2;}
	.st1{fill-rule:evenodd;clip-rule:evenodd;fill:#C4BDA2;}
	.st2{fill:none;}
</style>
<g>
	<g id="XMLID_5896_">
		<path id="XMLID_5897_" class="st0" d="M275,450c-110.3,0-200-89.7-200-200S164.7,50,275,50s200,89.7,200,200S385.3,450,275,450z
			 M275,67.4C174.3,67.4,92.4,149.3,92.4,250S174.3,432.6,275,432.6S457.6,350.7,457.6,250S375.7,67.4,275,67.4z"/>
	</g>
	<g id="XMLID_5862_">
		<path id="XMLID_5863_" class="st1" d="M271.9,201.3c16.7,2.2,36.8-4.6,48.9,8.3c1.7,1.8,5.3,9.5,4.6,12c-0.1,0.3-5.9,9.3-12.9,8.3
			c-1.6,1.5-9.3,5.8-11.1,7.4c-1.9,1.6-1.9,7.6-7.4,8.3C294,245.6,268.6,261.8,271.9,201.3z M296.8,211.4c2.8,2.7,6.4,4.6,10.1,1.8
			c1.1,2.1,10,4.2,12,0C312.5,208,302.8,203.9,296.8,211.4z M299.5,231.7C299.6,231.7,299.6,231.7,299.5,231.7c3,0.4,4.9,0.4,6.7-2
			c0.6-0.8,2-2.1,0.7-4.5C302.7,225.6,300.6,228.1,299.5,231.7z"/>
	</g>
	<g id="XMLID_5860_">
		<path id="XMLID_5861_" class="st1" d="M345.7,231.7c6.3,2.6,10.7,11.1,6.5,16.6c-2.6-2.7-5.7-4.7-9.2-6.5
			C344.8,239.5,342.7,233.1,345.7,231.7z"/>
	</g>
	<path class="st2" d="M217.4,218.6c3.1-0.1,6.1,0.3,12.9,0c1.7,3-1.7,5.8,3.7,5.5C234.5,215.7,221.5,211.6,217.4,218.6z"/>
	<path class="st2" d="M229.4,234.2c-3.8,0.4-4.3-3.6-6.5,0c6.6,4.8,14.3,0.9,19.4-0.9c-1.4-2.6-0.8-7.1-4.6-7.4
		C235,228.5,233.9,233.3,229.4,234.2z"/>
	<path class="st2" d="M265.2,331.1l0.1,0.1c4.5,4.7,15.6,5.7,21.3,4.6c0.2,0,3.5,0.3,3.7-1.8c0-0.1,1-3.3,0.9-5.5
		c-0.6-1.2-1.8-1.6-3.7-1.8C280.1,326.7,260.4,327.5,265.2,331.1z"/>
	<path class="st2" d="M229.4,234.2c-3.8,0.4-4.3-3.6-6.5,0c6.6,4.8,14.3,0.9,19.4-0.9c-1.4-2.6-0.8-7.1-4.6-7.4
		C235,228.5,233.9,233.3,229.4,234.2z"/>
	<path class="st2" d="M265.2,331.1l0.1,0.1c4.5,4.7,15.6,5.7,21.3,4.6c0.2,0,3.5,0.3,3.7-1.8c0-0.1,1-3.3,0.9-5.5
		c-0.6-1.2-1.8-1.6-3.7-1.8C280.1,326.7,260.4,327.5,265.2,331.1z"/>
	<path class="st2" d="M217.4,218.6c3.1-0.1,6.1,0.3,12.9,0c1.7,3-1.7,5.8,3.7,5.5C234.5,215.7,221.5,211.6,217.4,218.6z"/>
	<path class="st0" d="M362.4,157.1c0.2,0.4-0.9,1.1-0.9,0c-4.8-25.6-21.3-47.5-44.3-58.1c-19.3,1.6-35.8-5-51.7-3.7
		c-1.3,0.1-3.3,1.6-4.6,1.8c-3.9,0.6-7.2-0.8-11.1-0.9c-11.2-0.3-17.2,3.3-24,5.5c-18.6,6.1-23.8,9.4-33.2,21.2
		c-3.5,4.5-6.6,9.7-9.2,13.8c-5.2,8.2-13,22.9-13.8,32.3c-1,11.5,3.8,16.3,6.5,23.1c3.5,9.3,6.6,19.9,10,29.5
		c-7.6,0.3-8.2,8.3-8.3,12.9c-0.4,13.4,13.8,41.5,13.8,46.1c1.8,1.2,4.4,1.8,6.5,2.8c3,10,4.5,20.2,9.2,30.4
		c4.5,9.8,12.1,16.8,16.6,24c6.1,9.7,4.7,13.4,0,21.2c-6,9.9-13.1,15.9-20.3,23.1c-16.5,6.2-30.7,10.7-46.9,17.6
		c20.2,17.6,44.5,30.7,71.2,37.8c3.6-5.3,9.7-9.1,20-9.2c3.2,0,7-4,10.1-0.9c2.4,1.9,4,9.3,7.4,12.9c2.9,0,13-0.6,13.8-0.9
		c5.4-2.1,29-66.2,12-60c-4,1.5-21.1,12.2-24,14.8c-3,2.7-1.4,4-4.6,4.6c-3.9,0.7-29.7-20.7-34.2-21.5c0.7-6.3-1.3-9.8-0.9-15.7
		c4.8,5.7,7.4,13.5,12.9,18.4c0,0,17.8,10.1,22.2,10.4c17.3-12.5,40.6-28.3,55.3-47c19.7-25,19.7-43.8,19.4-51.7
		c0,0-14.9,15.4-49.8,3.7c-5.9,0.4-14.9-2.2-21.2-1.8l-2.8,0.2c-1,0.1-2.5-1.5-3.7-1.1c0.2-2.2,4-0.5,4.6,0l2.2-0.2
		c1.1-3.2,3.3-5,4.3-10c4.4-3.9,12.6-4,11.1-13.8c-6.5-0.1-13.3-0.2-16.6,3.7c-15.6-2.5-8.2-20-7.4-33.2c0.7-11.4-1.9-23.8-1.8-31.4
		c0,0-44-9.9-33.2-48c2.9-1,7.7-5.2,10.2-4.6c4.5,1.8,16.3-3.4,24-0.9c12.2-5,42.7-1.7,52.6-3.7c0.6,1,0.9,1.5,1.8,2.8
		c18.3,0.7,16.5,21.2,19.4,30.4c-0.6,0-1.2,0-1.8,0c1.5,12,12.2,20.2,11.1,35.1c2.9,2.3,2.5,3.8,4.6,5.5c6.3-3.6,6.6-13.1,16.6-12.9
		C372,201.1,369.5,171.4,362.4,157.1z M287.5,326.7c1.9,0.2,3.1,0.6,3.7,1.8c0.1,2.2-0.9,5.4-0.9,5.5c-0.2,2.1-3.5,1.8-3.7,1.8
		c-5.7,1.1-16.8,0.1-21.3-4.6l-0.1-0.1C260.4,327.5,280.1,326.7,287.5,326.7z M242.3,233.3c-5.1,1.8-12.8,5.7-19.4,0.9
		c2.2-3.6,2.7,0.4,6.5,0c4.5-0.9,5.6-5.7,8.3-8.3C241.5,226.2,240.9,230.7,242.3,233.3z M234,224.1c-5.4,0.3-2-2.5-3.7-5.5
		c-6.8,0.3-9.8-0.1-12.9,0C221.5,211.6,234.5,215.7,234,224.1z"/>
	<g id="XMLID_3731_">
		<path id="XMLID_3732_" class="st0" d="M320.8,371c-5.7,9.7-20.2,40.4-34.4,71.8c52.5-3.8,98.6-30.4,128.6-69.9l-31.6-22.3
			c-7-7.2-15.8-10.9-24-17.5c-7.2-5.8-11.4-16.3-20.3-18.5c0.7,5,4.6,9.3,3.7,14.8C340.6,343.4,329.3,356.4,320.8,371z"/>
	</g>
</g>
</svg>
