<?xml version="1.0" encoding="utf-8"?>
<!-- Generator: Adobe Illustrator 23.1.0, SVG Export Plug-In . SVG Version: 6.00 Build 0)  -->
<svg version="1.1" id="Layer_1" xmlns="http://www.w3.org/2000/svg" xmlns:xlink="http://www.w3.org/1999/xlink" x="0px" y="0px"
	 viewBox="0 0 550 182.6" style="enable-background:new 0 0 550 182.6;" xml:space="preserve">
<style type="text/css">
	.st0{fill:#3B2B0A;}
</style>
<g>
	<g id="XMLID_10507_">
		<path id="XMLID_10515_" class="st0" d="M444.3,56.3l-0.3,0.2c-0.5,0.2-0.7,0.7-0.7,1.2c0,0.3,0,0.5,0,0.7h27.2v-0.2l0.3-0.7
			c0.3-0.8,0.8-2,0.8-2.6l0.3-1.3c0-1.8,0.2-2.1,0.2-2.3v-0.2c0-0.7-0.8-1.5-1.2-1.5c-1.2,0-2.3,0.7-3.1,1.5c-0.7,0.7-2,2.3-2.3,2.6
			c-1.3,0.8-3,1.3-4.8,1.3c-2.8,0-4.1-1.2-4.1-3.3c0-0.2,0.3-1.8,0.3-2c-0.2-1.2-0.3-2.5-0.3-4.1c0-0.7-0.2-1.3-0.2-2.3
			c0-1.5,0.3-4.1,0.3-5.6c0-0.2-0.2-0.7-0.2-1l0.2-0.7v-3.5c0-0.2,0.2-0.5,0.2-0.8c0-0.2-0.2-0.3-0.2-0.5c-0.2-1.6,5.4-0.5,5.3-4.1
			c0-0.8-0.8-1.3-2.5-1.3c-1.5,0-6.1,0.5-11,0.5l-1.6-0.2c-2.3,0-3.6,0.3-3.6,0.8c0,2,2.3,3.3,4.1,4c0.5,0.2,0.7,1.6,0.7,4.5
			c0,2.1-0.2,5.4-0.2,5.4c0,1.3,0.2,2.6,0.2,2.6c0,0.8,0,1.8-0.2,3c0,0.3,0,0.7,0.3,1v0.2l-0.3,5.9C448,54.5,446.8,55.4,444.3,56.3z
			"/>
		<path id="XMLID_10514_" class="st0" d="M406.6,58.3c0.5-0.7,0.5-1.3,0.5-1.5c0-2.6,1.2-4.3,1.2-4.9c0-1-0.7-1.8-2.5-1.8
			c-0.3,0-1.6,1.5-2.8,2.8l-0.8,0.8c-0.3,1.3-2.1,1.8-5.1,1.8c-1.6,0-2.8-0.3-3.1-1c-0.3-0.7-0.7-2.6-0.7-5.9c0-0.2,0-0.5,0.2-1
			c-0.2-0.3-0.2-0.8-0.2-1.6c0-1.5,0.5-2.1,1.3-2.1c0.3,0,0.5,0,0.7,0.2l0,0c0,0,0-0.2-0.2-0.3c6.1,0,4.8,4.5,6.4,4.5h0.3
			c0.2,0,0.5,0,0.7,0c0,0,1.2-0.7,1.2-2.1c0-0.2,0-0.5-0.2-0.8v-0.5c0-0.2,0-1.2,0.3-2.6l0.5-3.5l-0.2-0.5c-0.2-0.7-0.7-1.6-2.1-1.6
			c-0.5,0-1.3,0.7-2.5,1.8c-1.3,1.2-2.1,1.8-2.8,1.8c-0.2,0-0.8,0-1.2,0c-1.3,0-2.3-0.7-2.3-6.3c0-1.8,0.3-2.8,1.3-3.1
			c1.2-0.5,1.6-0.5,3.3-0.5c5.9,0,4.1,4.6,7.7,4.6c1-0.3,1.5-1.3,1.5-2.8c-0.3-0.2-0.5-2-0.5-5.3c-0.2-0.5-0.5-0.8-1-0.8h-8.4
			c-0.5,0-2.6,0-3.1,0c-0.7,0-1.3,0-1.3,0c-0.8,0-1.3,0.2-1.8,0.2c-0.8,0-2,0-3.5-0.2s-2.6-0.3-3.5-0.3c-0.2,0-0.5,0-0.8,0
			s-1.5,0-1.8,0c-0.7,0-1.3,1-1.3,1.6c0,0,0,0.2,0,0.3c0.2,1.3,1.2,2,3,2c1.3,0,1.8,1.5,1.8,4.6c0,0.5,0,1.6,0,2.1
			c0.2,3.8,0.2,8.2-0.3,13.5v0.8c0,0.3,0.2,1.3,0.2,1.5c0,4.8-4,3.1-4.1,4.1c-0.7,0.8-1,1.3-1.3,1.3l-0.2,0.8v0.2h27.5L406.6,58.3
			L406.6,58.3z"/>
		<path id="XMLID_10513_" class="st0" d="M308.1,30c0.5,0.5,1.3,0.7,2.3,0.7c0.5,0.5,0.7,1,0.7,1.5c0,0.3-0.2,0.8-0.2,0.8
			c0,0.8,0.2,1.2,0.2,1.3c0,3.6-0.5,4.9-0.5,5.3c0,4.3,0,5.8,0,6.1s-0.2,1.8-0.2,3.5c0,2.3,0.5,3.3,1,4l0.2,0.2
			c0.5,1.2,0,1.6,5.6,4.6c0,0,0.5,0.2,1.2,0.3h14.5c1.2-0.5,2.3-1.3,3.3-2.5c2.1-2.3,3.3-4.8,3.3-7.6v-4.5c0,0,0.2-0.7,0.2-1.5
			c-0.2-0.8-0.2-1.5,0.2-1.8v-8.1c0-0.7,0.5-1.3,1.3-1.8l1.3-0.8c0-0.5,1.6-1,1.6-1.8c0-1-1-2-1.8-2h-8.2c-2.3,0-2.8,0.7-2.8,2.5
			c0,1,0.8,1.5,2.6,1.6c1.3,0.5,2.1,2,2.1,4.5c0,0.5,0,1.5,0,1.8c0,2.5,0,4.8-0.7,9.6c-0.5,4.8-2,8.2-4,8.2c-0.2,0-0.3,0-0.5,0
			c-0.5,0-1.2,0.2-1.8,0.5l-1,0.5c-0.5,0-1.8-0.2-3.8-0.5c-1.8-0.5-2.8-0.8-2.8-1.2c-1.6,0-2.5-2.8-2.5-8.2c0-3.3,0.5-8.1,0.5-7.9
			c0-8.4,0.5-3.8,1.3-6.6c0.8-0.5,2.8-0.7,2.8-1c0.2,0,0.3-0.3,0.5-0.7l0.3-0.5c0-1.5-2-2.3-6.1-2.3c-1,0-3,0-3.8,0
			c-9.4,0-6.9,1-7.9,1.8C306.8,28.5,307.5,29.6,308.1,30z"/>
		<path id="XMLID_10512_" class="st0" d="M235.9,51.6l-0.2,0.5c-0.3,0.7-0.5,1.5-0.7,1.6c-1.8,1.8-4.1,1.6-4.1,3c0,0.2,0,0.5,0,0.7
			c0,0.5,0.2,0.8,0.7,1.2h14.2c0.8-0.5,2.1-2.5,0.3-3.6c-1.5-1.2-4.6-1.2-4.9-2.1c-0.5-0.5-0.5-1.5-0.7-1.5v-2.6
			c0.2-0.3,0.2-0.5,0.2-0.5s-0.2-0.5-0.2-0.7v-0.5c0.2-0.3,0.2-0.5,0.2-0.8V46c0-0.8-0.2-2.6-0.2-3.3v-0.2c0-1.2,0-2.1,0-2.5v-0.2
			l0.2-0.5v-2.5c0-0.2,0.3-0.7,0.5-0.7c0.7,0,1.5,0.7,2.8,2s2.5,2.6,3.5,4s1.5,2,1.5,2.1c0,0,1.2,1.5,3.3,4.1
			c2.3,2.6,4.6,5.1,7.3,7.9c1,1,1.8,1.8,2.5,2.5h4.5c0.2-0.8,0.2-1.5,0.2-1.5c0-1.3,0-3.1,0-5.4v-5.9v-0.8c0-0.7-0.2-1.2-0.2-1.5
			l0.2-0.7c0-1.5,0-3.3,0.2-5.3c0-2.1,0.2-4,0.2-5.4c0-1.3,0.7-2.6,1.3-2.6c0,0,0.3,0,0.5,0c1.6,0,2.3-1.3,2.8-2v-0.2
			c0.2-2.1-1.8-1.8-3.3-2c-2.3,0-4.3,0.3-4.5,0.3c0,0-1.5-0.2-2-0.2c-2.8,0-4.3,0.5-4.6,1.6l0,0c1.3,1.3,0.7,3,3,2.6
			c0.2,0,0.7,0,0.7,0s0.2,0,0.3,0c0.8,1,1.2,2,1.2,2.6v2c0,1.8,0,2.8-0.2,2.8c0,0.5,0.2,1.3,0.2,1.8c0,2.3-0.5,4-1.3,4.8
			c-1.3-1.3-3.8-3-3.8-3.3c0-0.2-0.7-1-1.8-2.1c-1.2-1.2-2-1.8-2.1-2c0-0.3-0.5-0.7-1-1.3c-0.7-0.7-1-1-1-1.2c0-0.5-0.7-1.3-1.8-2.3
			l-1.8-1.6c-2.3-3.5-4.5-4.1-4.8-4.1c-0.8,0-2,0-3.6,0s-2.8,0-3.6,0c-0.7,0-1.6,0.2-2.8,0.5c-1.2,0.3-1.6,0.7-1.6,1
			c0,1,1,1.6,2.6,2.1c1.8,0.5,2.8,1.3,2.8,2.1c0,0.2,0,0.3,0,0.5c0.3,0.5,0.2,1,0.3,2c0,0.8-0.2,2.8-0.5,6.1
			C236.3,43.6,236.1,47.4,235.9,51.6z"/>
		<path id="XMLID_10509_" class="st0" d="M174.4,58.3c0-0.2,0-0.3,0-0.7v-0.5c0-1.5-2.6-2.3-2.6-2.5c-0.2-0.2-0.2-0.5-0.2-0.7
			s0-0.7,0-0.8c0-0.5,0.3-1.3,0.7-2.1c0.5-1,0.7-1.5,0.8-1.6c0.5,0,1.5-0.8,4.1-0.8h0.7c0.3,0,0.7,0.2,1.2,0.2h0.7
			c0.8,0,1.3,0.3,1.8,0.8l0.7,1.8c0.5,1,0.7,1.8,0.5,2.8s-0.7,1.5-1.5,1.5c-0.2,0-0.3,0-0.5,0h-0.3l0.2,0.2
			c-0.8,0.8-1.2,1.3-1.2,1.6c0,0.2,0.2,0.3,0.2,0.5s0,0.3,0.2,0.5h16.2c0-0.3,0.2-0.7,0-0.8c-0.7-1.2-1.5-2-2.6-2.6
			c-0.7-0.5-1.3-1.6-1.8-3.3c-0.3-1-1-2.5-1.8-4.3c-1-1.8-1.5-3.3-1.8-4.5c-1.3-3.6-2.3-5.9-2.8-6.9c0-0.2,0-0.5,0-1.2
			c-0.3-0.2-0.5-0.7-0.8-1.3c-0.5-1-0.5-2.8-1-3.8l-0.7-1.8l-0.2-0.2c0-1.2-0.8-1.6-1.5-1.6h-0.5l0.2-0.2c-0.2,0-0.5,0-0.5-0.2h-0.2
			l-2.3,2.3h0.2h0.2c0,0.8-0.2,1.5-0.7,2c-0.3,0.3-0.8,1.2-1.3,2.3l-0.8,2c-0.7,1.6-0.3,1.3-1.6,3.1c0,0.5-0.2,1-0.5,1.5
			c-0.7,1-1.5,2.6-2.5,4.6s-1.6,3.5-2.1,4.1c-0.5,0.7-0.8,1-0.8,1.2c0,0-0.3,0.8-1.2,2.1l-1.2,2.1c0,1-2.1,1.8-2.8,1.8
			s-1.6,1.8-1.6,2.3c0,0.3,0.2,0.7,0.2,1L174.4,58.3L174.4,58.3z M175.4,43.8c0-0.2,0-0.5,0.3-1c0.5-0.8,0.7-2.3,1.2-2.8
			c0.3-0.3,0.7-0.5,1.3-0.5h0.3c0.3,1,0.7,1.6,1,2.1v2.6c0,0.3-0.5,0.5-1.3,0.5h-0.5c-0.5-0.2-1.5-0.3-2-0.3
			C175.2,44.1,175.4,43.8,175.4,43.8z"/>
		<path id="XMLID_10508_" class="st0" d="M91.3,58.3c0-0.8-1-1.6-2.6-2.5c-1.8-1-2.6-1.8-2.6-2.5c0-0.3,0.2-0.8,0.2-1
			c0,0,0-0.2-0.2-0.2c0-3.8-0.2-5.8-0.2-6.1c0-1.5,0.2-2.6,0.3-3.5c0.2-0.8,0.5-2.3,0.7-4.6c1,0.3,2,2,2.3,3.1l0.3,0.8
			c0,1.3,0.7,2.6,1.8,4s1.8,2.5,2,3.5c0.5,0.7,1,1.6,1.6,3.1c0.7,1.5,1.3,2.8,2,3.6c0.7,0.8,1.5,1.3,2.3,1.3c1.5,0,2.5-2.8,2.8-4
			l0.2-0.3c0-0.7,1.3-2,1.3-2.3c0,0,0,0,0-0.2l0,0c0.5-0.7,1.3-2.1,2.6-4.6s2.1-4.1,2.5-4.6c0.5-0.5,1.6-3.8,2.3-3.8
			c0.2,0,0.5,0.5,0.5,0.7l-0.2,0.5c0.2,0,0.5,2,0.5,2c0,0.3-0.2,0.8-0.2,1.5c0,0.5,0,1.5,0,3s0.2,2.8,0.2,3.6c0,4.6-0.8,6.9-2.6,6.9
			h-0.3c-0.8,0-1.8,1-1.8,1.3c0,0.5,0,0.8,0.2,1.2h18.1c0-0.3,0.2-0.7,0.2-1.3c0-0.2-1.6-1-1.6-1.2c-2.5,0-3.6-1.5-3.6-4.3
			c0-0.3,0.2-1.6,0.2-2c0-0.7-0.3-2.1-0.3-2.5c0-1,0-2.3,0.2-4c0-1.6,0.2-2.8,0-3.6c-0.2-0.5-0.2-1.3-0.2-2.5s0-2,0-2.5v-0.5
			c0-3.8,0.8-4.5,2-4.5h0.3c0.7,0,3.5-1,3.5-1.8c0,0,0-0.2-0.2-0.3l-0.2-0.2c0,0,0-0.2,0.2-0.2c0-0.8-1.8-1.8-2.1-1.8
			c-8.7,0-13,0.8-13,2.6c-0.8,1.5-1.6,3.3-2,3.8l-0.2,0.5c0,0-0.3,0.8-1.3,2.3l-2.6,4.9c-0.8,1.6-1.3,2.8-1.3,3.3c0,0,0,0.2,0.2,0.2
			c0,1-1.3,2-1.5,2.3h-0.5c-1.5-1.5-1.8-3-2.3-3.1c-0.5-1.8-1.2-3-1.8-3.8c-0.7-0.7-1-1.5-1-2.3c0-0.2-0.3-0.7-1-1.6
			c-0.7-1-1-1.5-1-1.5l-0.2-0.5c-1.3-3.1-1.8-4.3-3.5-5.8c-0.8-0.7-1.6-1-2.6-1c-2.6-0.2-4.9-0.2-7.1-0.2c0,0-0.5,0-0.7,0
			c-0.7,0-2.3,0.7-2.3,0.8v0.2c0,0.2-0.2,0.3-0.2,0.3c0,2.1,1.5,3.1,4.6,3.1c0,0,0.5,0.8,1.2,1.3c0,1.8-0.5,4.9-1,9.2
			c-0.5,4.3-0.7,7.6-0.7,10.1c0.2,0.5,0.2,0.7,0.2,1c0,1.6-1,3-1,3c0,0.5-0.7,0.8-1.8,1.2c-1.3,0.2-1.8,0.3-1.8,0.3
			c0,0.2-0.8,1.3-0.8,2v0.2h14.8v0.5H91.3z"/>
	</g>
	<g id="XMLID_10489_">
		<g id="XMLID_10493_">
			<path id="XMLID_10504_" class="st0" d="M228.5,155.4v-1.2c0-3-5.3-4.6-5.3-5.1c-0.3-0.5-0.5-1-0.5-1.5s0.2-1.5,0.2-1.5
				c0.2-1.2,0.7-2.5,1.5-4.3s1.5-3,1.6-3.3c0.8,0,3-1.6,8.2-1.6h1.5c0.5,0.2,1.5,0.3,2.5,0.3h1.3c1.6,0,2.8,0.5,3.5,1.6l1.5,3.5
				c1,1.8,1.3,3.8,1,5.8c-0.5,2-1.5,3-3,3c-0.3,0-0.5,0-1-0.2h-0.7l0.5,0.5c-1.5,1.5-2.5,2.6-2.5,3.3c0,0.5,0.3,0.7,0.3,0.8
				c0,0.2,0,0.3,0.2,0.5h32.8c0-0.5,0-0.8,0-1.2c-1.3-2.3-3.1-4-5.3-5.3c-1.5-1-2.5-3.3-3.5-6.8c-0.5-2.1-1.8-4.9-3.6-8.6
				c-1.8-3.8-3-6.8-3.5-9.1c-2.6-7.3-4.5-11.9-5.8-13.8c-0.2-0.5-0.2-1.2-0.2-2.3c-0.5-0.5-1.2-1.3-1.5-2.5c-1-2.1-1-5.4-2-7.7
				l-1.5-3.5l-0.3-0.5c0-2.3-1.6-3.3-3-3.3h-1.3l0.5-0.3c-0.5,0-0.8-0.2-1.2-0.3l-0.5-0.2l-4.8,4.5l0.3-0.2h0.3
				c0,1.6-0.5,3.1-1.3,4.1c-0.7,0.7-1.5,2.3-2.5,4.8l-1.6,4.1c-1.5,3.3-0.5,2.8-3.3,6.3c0,1-0.3,2.1-1,3.1c-1.3,2.1-3,5.3-4.9,9.4
				c-1.9,4.1-3.3,6.9-4.3,8.2c-1,1.5-1.5,2.1-1.5,2.3s-0.7,1.6-2.3,4.3l-2.5,4.3c0,2.1-4.3,3.5-5.4,3.5c-1.3,0-3.3,3.5-3.3,4.5
				c0,0.3,0.2,1,0.3,1.5H228C228.5,155.9,228.5,155.6,228.5,155.4z M230.5,127.4c0-0.5,0.2-1,0.5-2c1.2-1.5,1.3-4.6,2.3-5.8
				c0.5-0.7,1.5-1,2.5-1h0.5c0.7,2,1.5,3.3,2.1,4.3v5.3c-0.2,0.5-1,0.8-2.6,0.8H235c-1-0.5-3-0.5-4-0.7
				C230.2,128.1,230.5,127.6,230.5,127.4z"/>
			<path id="XMLID_10498_" class="st0" d="M310.8,153.6c-0.8-0.7-2-1.2-3.1-1.2c-2.3,0-4.6-1.2-4.6-4.3v-0.7c-1-1-1.5-3.6-1.5-8.1
				c0-6.4,0.7-9.6,2.1-9.6l0.7,0.3c6.1,5.3,7.3,7.9,9.2,12.2c1,2.1,2.5,4.6,4.6,7.3c0,2.5,2.1,5.1,3.5,6.6h22.8c0-0.3,0.2-0.7,0.2-1
				c0-0.7-0.7-1.5-2-2l-2-0.8c0-2-8.2-6.4-8.2-11.2c-4-6.4-6.8-11.4-8.4-14.8c0.7-3.6,11.2-7.4,10.7-13.8v-6.7c0-3.1-2-5.9-5.6-8.4
				c-3.6-2.6-6.3-4-7.9-4c-1.2,0-5.8-1.3-11.2-1.3c-2.5,0-7.7,1.3-19.5,1.3c-0.2,0-0.8,0-2.3-0.2C287,93,286.2,93,286,93
				c-0.7,0-5.6,0.3-7.4,0.3c-1.6,0-2.5,1-2.5,3c0,2.1,0.8,3.5,2.8,4.1h3.5c0,0.5,3.1,2.8,3.1,6.4v4.9v7.1c0.5,4.3,0.3,5.1,0.3,5.6
				v0.2l-0.3,3.5l0.3,1v7.7c0,0.5-0.8,1.5-0.8,1.6c0,0.5,0.7,2,0.7,2.3c0,6.4-2.1,12.2-5.1,12.2c-1.3,0-3,1.8-3.5,1.8
				s-0.7,0.5-0.8,1.3h36.4C312.1,154.9,311.6,154.1,310.8,153.6z M304.2,100.7h4.9c3.8,2,6.3,3.6,6.9,4.9c0.7,1.3,1.2,4.3,1.2,8.9
				c0,1.2-1.2,3-3.6,5.1c-1.6,1.6-3.6,2.3-5.9,2.3H307c-4,0-4.9-0.5-4.9-5.1c0-0.7,0.3-3.5,0.3-4c0-1.3-0.8-5.6-1-5.8
				C301.4,105.1,302.2,102.8,304.2,100.7z"/>
			<path id="XMLID_10495_" class="st0" d="M385.5,155.8c0-7.3-11.2-2.5-11.2-12.4c0-1.2,0.2-4.5,0.2-5.8v-1.8
				c0.2-0.2,0.3-0.7,0.3-1.2c0-2,1.2-2.8,3.6-2.8c2.3,0,6.6,1.3,6.8,1.3c4.8,0,7.9-0.5,9.6-1.3s3-1.3,3.6-1.3c0.2-0.2,1.3-1,3.8-2.3
				c2.5-1.5,3.8-3.1,3.8-4.8c1.5-3.5,4.8-2.6,4.8-11.4c0-5.8-4.8-21.1-21.6-21.1c-2.1,0-6.6,0.2-13.4,0.3
				c-6.6,0.2-11.5,0.3-14.7,0.3c-1.3,0-6.3-0.7-7.4-0.7c-4,1.6-4,1-4,2.6v0.7c0,0.5-0.2,1-0.2,1.5c0,1.8,8.6,2.1,8.6,10.9
				c0,1.2-0.2,3.6-0.5,7.7c-0.2,4-0.3,6.8-0.3,8.4c0.5,2.1,0.7,4,0.7,5.9v3.8c0,7.3-0.7,13-1.8,17.3c-0.7,0-2.1,1-3.8,3
				c-1.3,1.5-2.3,2.6-2.5,3.3h35.4C385.5,155.9,385.5,155.9,385.5,155.8z M374.6,103.5c0-4.1,3.6-4.6,4-4.6c1.6,0,3.6,0.3,6.3,1
				c2.5,0,4.8,2.5,5.8,4.5l0.7,1.6c0,0.7,0.7,4.3,0.7,5.6c0,3.8-0.5,6.4-1.2,7.4l-3.6,3.6c-0.8,0.5-1.6,1-2.1,1.5
				c-1.8,0.3-3.3,0.5-4.6,0.5c-1.6,0-3.3-0.5-4.9-1.2c0-0.7-1.3-3.8-1.3-5.1C374.4,110.8,374.6,105.8,374.6,103.5z"/>
			<path id="XMLID_10494_" class="st0" d="M472.7,153.6c0-5.3,2.3-8.6,2.3-9.9c0-2-1.3-3.6-4.9-3.6c-0.7,0-3.3,3.1-5.6,5.6l-1.6,1.8
				c-0.7,2.5-4.3,3.6-10.2,3.6c-3.3,0-5.4-0.7-6.3-2c-0.7-1.3-1.2-5.3-1.2-11.7c0-0.5,0.2-1,0.5-2c-0.3-0.7-0.5-1.8-0.5-3.3
				c0-3,0.8-4.5,2.6-4.5c0.7,0,1,0.2,1.5,0.3l0.2,0.2c0-0.2-0.2-0.3-0.5-0.7c12,0,9.7,8.7,12.7,8.7h0.7c0.5-0.2,0.8-0.2,1.3-0.2
				c0.2,0,2.3-1.2,2.3-4.5c0-0.5-0.2-1-0.3-1.6l-0.2-1c0-0.5,0.2-2.1,0.7-5.3l0.8-7.1l-0.5-1c-0.5-1.5-1.2-3.3-4.3-3.3
				c-0.8,0-2.5,1.2-4.9,3.5c-2.5,2.3-4.3,3.5-5.4,3.5c-0.5,0-1.6,0.2-2.1,0.2c-2.5,0-4.6-1.3-4.6-12.5c0-3.5,0.7-5.6,2.6-6.3
				c2.1-1,3.3-1,6.6-1c11.7,0,8.2,9.2,15.3,9.2c2-0.7,3.1-2.5,3.1-5.6c-0.7-0.5-0.8-3.8-1-10.4c-0.5-1-1-1.6-2-1.6h-16.7
				c-1,0-5.1,0.2-6.3,0.2s-2.5-0.2-2.6-0.2c-1.6,0.2-2.8,0.3-3.6,0.3c-1.6,0-4-0.2-7.1-0.5c-3.1-0.5-5.3-0.7-6.8-0.7
				c-0.3,0.2-0.8,0.2-1.6,0.2c-0.7,0-3.1-0.2-3.6-0.2c-1.2,0-2.8,2-2.8,3.3c0,0.2,0.2,0.5,0.2,0.7c0.5,2.5,2.3,3.8,5.9,3.8
				c2.5,0,3.6,3.1,3.6,9.2c0,1-0.2,3.3-0.2,4.1c0.5,7.4,0.3,16.5-0.7,26.9v1.6c0,0.7,0.3,2.6,0.3,3.1c0,9.6-7.7,6.3-8.1,8.4
				c-1.2,1.6-2,2.5-2.6,2.8l-0.3,1.3h55.6C472.7,154.9,472.7,153.9,472.7,153.6z"/>
		</g>
		<path id="XMLID_10490_" class="st0" d="M127.3,155.1c1.5-1.3,2.5-2,3-2c0.7-0.7,3-2.1,3.6-2.8c6.8-5.9,10.2-13.8,10.2-23.9
			c0-3.5-0.3-6.6-1-9.7c-2.5-7.3-5.3-11.7-8.2-13.8c-0.2-0.7-1.5-1.8-4.3-3.1c-2.8-1.5-4.3-2.5-4.8-3.1c-5.8-3-10.6-4.1-13.7-4.3
			l-8.9-0.5c-4.3-0.2-8.6-0.5-12.5-0.8L90,91.4c-3.6,0.5-6.3,0.7-8.2,0.7c-2.1,0.2-4.3,1-6.1,2.8c-0.5,0.5-0.7,1-0.7,1.6
			c0,1,1.6,3.5,7.4,4.9c0,0.7,0.8,2.1,0.8,2.3c0,2.1-0.7,5.9-0.7,7.1v8.6c0.2,1.6-0.5,2-2.3,2c-2.6,0-4.5,0.2-5.3,0.7
			c0,4.5,0.2,6.6,0.7,6.6l2.5-0.2h2.8c0.7,0,1.6,0.7,1.5,2c0,1,0.3,4,0.3,8.7c0,8.1-1.3,12.2-3.8,12.2l-1,0.7
			c-1.2,1-2.8,2.5-2.8,3.6c0.3,0,0.5,0.2,0.8,0.5H126C126.4,155.8,126.8,155.4,127.3,155.1z M99.2,140.8c0-0.7,0.2-3,0.2-6.9
			c-0.2-0.5-0.2-1-0.2-2v-1.2c-0.3-1.3,0.3-2,1.8-2c2.3-0.2,4.3-0.3,5.8-0.3c4.6,0,8.6,0.2,9.4,0.2c1-0.5,1.5-1.8,1.5-4.3v-1.2
			c-0.2-1-0.7-1.6-1-1.6l-12.5,0.3l-3-0.2c-1.2,0-1.8-0.7-1.6-2c0-0.5-0.2-1.2-0.2-1.6c0-4.1,1-10.2,1-14.7c0-3.1,1.6-4.6,4.8-4.6
			c0.7,0,2.3,0.5,5.1,1.2c1.6,0,3.1,0.5,4.5,1.2c3.5,3.5,5.4,3.3,8.1,8.9c2,2,1.6,6.1,2.3,8.7c0.3,1.8,1.2,4.3,1.2,4.8
			c0,26.5-16,28.2-17,28.2C102.9,151.6,99.2,149,99.2,140.8z"/>
	</g>
</g>
</svg>
